<?xml version="1.0" standalone="no"?>
<!DOCTYPE svg PUBLIC "-//W3C//DTD SVG 20010904//EN"
 "http://www.w3.org/TR/2001/REC-SVG-20010904/DTD/svg10.dtd">
<svg version="1.0" xmlns="http://www.w3.org/2000/svg"
 width="512.000000pt" height="512.000000pt" viewBox="0 0 512.000000 512.000000"
 preserveAspectRatio="xMidYMid meet">
<metadata>
Created by potrace 1.14, written by Peter Selinger 2001-2017
</metadata>
<g transform="translate(0.000000,512.000000) scale(0.100000,-0.100000)"
fill="#000000" stroke="none">
<path d="M1254 3948 c-3 -5 -10 -6 -15 -3 -5 3 -6 -1 -2 -11 5 -14 3 -15 -15
-5 -14 7 -23 8 -27 1 -4 -6 -11 -8 -16 -5 -5 4 -9 1 -9 -4 0 -6 -5 -11 -11
-11 -5 0 -7 5 -3 12 8 13 -11 3 -40 -21 -11 -9 -16 -10 -12 -3 9 15 -10 16
-20 1 -4 -8 -9 -7 -15 2 -7 11 -9 10 -9 -3 0 -12 -5 -15 -17 -11 -11 4 -14 3
-9 -5 5 -8 2 -10 -8 -6 -8 3 -29 -1 -47 -10 -17 -9 -35 -13 -40 -10 -5 3 -9 0
-9 -6 0 -6 -4 -8 -10 -5 -5 3 -10 1 -10 -5 0 -6 -4 -8 -10 -5 -5 3 -10 2 -10
-4 0 -9 -36 -24 -65 -26 -5 -1 -9 -6 -8 -12 1 -6 -4 -14 -12 -17 -8 -3 -15 -1
-15 4 0 6 -5 10 -11 10 -5 0 -8 -4 -5 -8 5 -9 -54 -48 -66 -44 -5 1 -8 -3 -8
-9 0 -5 -5 -7 -10 -4 -6 4 -9 1 -8 -6 2 -7 -2 -13 -7 -14 -11 0 -29 -14 -67
-50 -11 -11 -17 -13 -13 -5 8 13 6 13 -8 1 -9 -7 -14 -17 -11 -22 3 -5 -4 -9
-15 -9 -12 0 -20 -3 -19 -7 3 -10 -49 -63 -55 -57 -2 3 -10 -3 -18 -13 -12
-15 -12 -16 1 -8 8 4 6 -1 -5 -12 -11 -11 -24 -18 -29 -15 -5 3 -7 -2 -3 -11
4 -11 1 -17 -9 -17 -8 0 -12 -4 -9 -10 3 -5 2 -10 -4 -10 -5 0 -24 -20 -42
-45 -17 -24 -36 -42 -40 -39 -5 3 -6 -1 -3 -9 3 -8 -5 -25 -18 -37 -13 -13
-16 -20 -8 -16 9 5 8 2 -2 -7 -10 -8 -18 -18 -18 -22 0 -5 -8 -17 -17 -28 -11
-12 -12 -17 -4 -12 10 5 12 4 7 -3 -4 -7 -15 -12 -24 -12 -13 0 -14 -2 -4 -9
11 -7 9 -13 -10 -31 -12 -13 -18 -20 -11 -16 8 4 7 -2 -2 -21 -8 -15 -15 -34
-15 -41 0 -8 -5 -10 -12 -6 -8 5 -9 2 -5 -9 3 -9 2 -19 -4 -22 -5 -4 -7 -10
-4 -15 3 -4 -2 -13 -9 -20 -8 -6 -13 -20 -11 -31 3 -13 -2 -19 -13 -19 -13 0
-14 -2 -3 -9 9 -6 10 -11 3 -15 -6 -4 -9 -13 -5 -21 3 -8 0 -15 -7 -15 -6 0
-9 -4 -6 -9 4 -5 0 -12 -6 -14 -10 -4 -10 -6 0 -6 9 -1 10 -6 3 -20 -6 -10
-11 -34 -13 -54 -1 -20 -6 -33 -11 -30 -6 4 -8 -5 -5 -21 3 -14 2 -26 -2 -26
-4 0 -6 -14 -4 -31 3 -22 0 -28 -9 -23 -9 6 -8 3 1 -8 10 -12 10 -18 2 -23 -7
-4 -10 -18 -7 -31 2 -13 1 -24 -3 -24 -9 0 -5 -44 6 -61 4 -8 3 -9 -5 -5 -8 5
-10 -1 -6 -24 4 -23 2 -29 -6 -24 -8 5 -9 3 -3 -7 11 -18 14 -70 3 -63 -5 3
-9 0 -9 -5 0 -6 5 -11 10 -11 6 0 10 -5 10 -11 0 -5 -4 -7 -10 -4 -5 3 -10 1
-10 -4 0 -6 5 -11 10 -11 6 0 10 -5 10 -11 0 -6 -8 -8 -18 -5 -16 6 -16 5 0
-7 16 -13 16 -15 0 -32 -16 -18 -16 -18 1 -5 17 13 19 12 17 -15 -1 -17 -1
-32 0 -35 1 -3 3 -17 5 -33 3 -19 0 -25 -8 -21 -7 3 -3 -2 7 -10 13 -10 15
-16 7 -16 -9 0 -10 -4 -4 -12 5 -7 11 -33 12 -58 2 -25 7 -48 13 -51 5 -3 9
-9 9 -13 -1 -3 -1 -22 -1 -42 0 -25 3 -33 13 -28 7 5 6 0 -3 -11 -8 -10 -10
-16 -3 -12 6 4 14 3 18 -3 3 -5 1 -10 -6 -10 -9 0 -9 -3 0 -14 6 -7 8 -22 4
-31 -4 -13 -3 -16 5 -11 10 6 15 -11 11 -40 0 -4 4 -10 10 -13 6 -4 12 -16 14
-26 2 -11 8 -30 15 -41 6 -12 8 -24 5 -28 -3 -3 -1 -6 5 -6 7 0 12 -9 12 -20
0 -11 5 -20 11 -20 6 0 9 -6 6 -14 -3 -8 1 -17 9 -20 8 -3 14 -12 14 -21 0 -8
4 -15 9 -15 5 0 8 -8 7 -18 0 -9 5 -16 12 -14 6 1 11 -1 10 -5 -4 -13 24 -73
33 -73 5 0 9 -7 9 -15 0 -8 5 -15 11 -15 5 0 7 -4 4 -10 -3 -5 1 -10 9 -10 9
0 16 -9 16 -21 0 -11 4 -17 10 -14 5 3 10 0 10 -8 0 -8 14 -26 32 -41 17 -14
29 -26 25 -26 -4 0 15 -22 41 -49 26 -27 49 -47 51 -45 6 5 31 -23 31 -35 0
-6 6 -10 13 -9 6 2 11 -2 10 -9 -2 -8 4 -10 14 -6 11 4 14 3 9 -5 -4 -7 -2
-12 6 -12 7 0 29 -14 48 -30 19 -16 40 -30 46 -30 6 0 17 -7 24 -15 7 -8 16
-12 21 -9 5 3 9 -2 9 -11 0 -10 5 -13 12 -9 6 4 17 -1 25 -11 7 -11 13 -16 13
-12 0 4 10 2 22 -5 13 -7 29 -11 37 -9 7 1 10 -2 6 -8 -3 -7 3 -11 15 -11 13
0 19 -4 14 -11 -4 -8 0 -9 15 -4 13 4 21 2 21 -5 0 -6 5 -8 10 -5 6 3 10 1 10
-5 0 -6 5 -8 10 -5 6 3 10 2 10 -3 0 -6 10 -8 22 -4 16 4 19 2 13 -9 -7 -11
-5 -11 10 1 11 9 16 10 11 3 -7 -12 16 -18 52 -14 6 1 12 -6 12 -16 0 -15 2
-16 10 -3 8 12 10 12 10 1 0 -10 3 -11 14 -2 11 9 16 9 22 0 5 -8 3 -9 -6 -4
-9 5 -11 4 -6 -4 5 -8 12 -9 20 -2 7 6 18 6 25 1 8 -4 20 -6 28 -3 8 3 21 -3
29 -13 9 -11 13 -13 9 -6 -7 14 21 17 30 2 4 -7 12 -7 23 -1 12 7 23 5 36 -7
11 -9 16 -12 13 -6 -9 15 20 27 29 12 5 -7 2 -8 -7 -3 -11 6 -12 5 -2 -5 11
-12 16 -11 29 6 8 10 12 13 9 6 -5 -10 5 -13 47 -11 29 1 63 6 75 10 14 5 23
4 27 -4 3 -8 7 -9 13 -2 9 12 23 13 40 2 6 -4 14 -3 17 2 3 5 15 7 26 4 14 -4
20 0 20 11 0 10 5 14 10 11 6 -4 7 -11 4 -17 -4 -5 4 -4 17 4 13 9 41 15 61
14 20 -1 36 4 35 9 -1 6 15 11 36 13 23 2 35 7 31 14 -4 6 2 6 15 -1 17 -9 21
-9 19 1 -2 8 5 12 20 10 12 -2 22 0 22 5 0 4 9 14 21 21 12 8 19 9 15 4 -3 -5
1 -9 9 -9 8 0 12 4 9 9 -5 7 12 12 19 6 1 -2 17 8 35 21 18 13 36 21 39 18 3
-4 12 1 20 9 8 8 19 12 24 9 5 -4 6 2 2 11 -4 10 -2 15 3 11 6 -3 30 7 55 24
24 16 49 29 56 29 7 0 10 7 6 17 -4 11 -3 14 5 9 7 -4 23 4 38 19 14 14 30 22
36 19 6 -4 9 -3 6 2 -3 5 0 15 8 22 8 7 14 11 14 8 0 -3 25 20 55 50 30 31 55
61 55 67 0 5 3 7 6 4 8 -7 50 44 46 55 -1 5 2 8 6 8 5 0 17 7 28 16 10 8 12
12 4 8 -13 -7 -13 -5 -1 9 7 9 10 17 6 17 -4 0 -2 7 5 15 11 13 10 14 -2 10
-9 -4 -15 0 -15 9 0 8 4 13 9 10 4 -3 8 0 8 5 0 6 -6 11 -12 11 -10 0 -9 3 1
9 9 6 10 10 2 16 -9 5 -9 10 0 21 6 8 8 14 4 14 -4 0 -2 6 4 14 9 11 9 16 0
22 -8 4 -9 3 -5 -4 4 -7 2 -12 -3 -12 -14 0 -14 17 0 26 8 4 7 9 -2 15 -9 6
-10 9 -2 9 12 0 12 17 1 35 -4 6 -3 17 2 25 5 9 4 20 -3 29 -9 12 -9 13 1 7 6
-4 12 -2 12 3 0 6 -6 11 -12 11 -10 0 -9 3 1 9 9 6 10 10 2 16 -9 5 -9 10 0
21 6 8 8 14 4 14 -4 0 -2 6 4 14 9 11 9 16 0 22 -8 4 -9 3 -5 -4 4 -7 2 -12
-3 -12 -14 0 -14 17 0 26 8 4 7 9 -2 15 -9 6 -10 9 -2 9 12 0 12 17 1 35 -4 6
-3 17 2 25 5 9 4 20 -3 29 -9 12 -9 13 1 7 6 -4 12 -2 12 3 0 6 -6 11 -12 11
-10 0 -9 3 1 9 9 6 10 10 2 16 -9 5 -9 10 0 21 6 8 8 14 4 14 -4 0 -2 6 4 14
9 11 9 16 0 22 -8 4 -9 3 -5 -4 4 -7 2 -12 -3 -12 -14 0 -14 17 0 26 8 4 7 9
-2 15 -9 6 -10 9 -2 9 12 0 12 17 1 35 -4 6 -3 17 2 25 5 9 4 20 -3 29 -9 12
-9 13 1 7 6 -4 12 -2 12 3 0 6 -6 11 -12 11 -10 0 -9 3 1 9 9 6 10 10 2 16 -9
5 -9 10 0 21 6 8 8 14 4 14 -4 0 -2 6 4 14 9 11 9 16 0 22 -8 4 -9 3 -5 -4 4
-7 2 -12 -3 -12 -14 0 -14 17 0 26 8 4 7 9 -2 15 -9 6 -10 9 -2 9 12 0 12 17
1 35 -4 6 -3 17 2 25 5 8 4 22 -2 33 -9 17 -8 19 8 13 15 -6 16 -4 7 5 -6 6
-9 18 -6 27 5 11 3 13 -7 7 -10 -6 -11 -4 -4 6 17 27 11 35 -25 34 -20 0 -46
3 -59 7 -14 5 -21 4 -17 -2 6 -10 -59 -5 -78 7 -6 3 -7 1 -3 -5 7 -12 -56 -8
-77 5 -6 3 -7 1 -3 -5 7 -12 -56 -8 -77 5 -6 3 -7 1 -3 -5 7 -12 -56 -8 -77 5
-6 3 -7 1 -3 -5 7 -12 -56 -8 -77 5 -6 3 -7 1 -3 -5 7 -12 -56 -8 -77 5 -6 3
-7 1 -3 -5 7 -12 -56 -8 -77 5 -6 3 -7 1 -3 -5 7 -12 -56 -8 -77 5 -6 3 -7 1
-3 -5 7 -12 -56 -8 -77 5 -6 3 -7 1 -3 -5 7 -12 -56 -8 -77 5 -6 3 -7 1 -3 -5
7 -12 -56 -8 -77 5 -6 3 -7 1 -3 -5 7 -12 -56 -8 -77 5 -5 3 -7 2 -4 -3 3 -6
-32 -9 -88 -8 l-93 2 -4 -59 c-1 -33 1 -64 6 -70 6 -6 5 -9 -2 -9 -9 0 -10 -5
-2 -19 7 -14 6 -21 -3 -24 -9 -4 -9 -8 2 -15 11 -8 11 -10 0 -15 -11 -4 -11
-6 -1 -6 7 -1 10 -6 7 -12 -9 -14 -9 -134 -1 -148 4 -6 2 -11 -5 -11 -9 0 -9
-3 0 -14 9 -11 9 -15 -1 -19 -10 -4 -10 -8 2 -16 13 -10 13 -11 0 -11 -11 0
-12 -2 -3 -8 7 -4 9 -13 4 -20 -11 -18 -2 -60 15 -66 8 -3 14 0 14 6 0 7 4 7
14 -1 10 -9 16 -9 21 -1 5 8 11 8 21 -1 8 -6 14 -7 14 -2 0 8 38 10 48 3 2 -2
35 -3 53 -1 5 1 7 6 4 11 -3 6 -1 10 4 10 6 0 11 -7 11 -15 0 -12 4 -13 18 -6
13 7 23 6 30 -1 9 -9 12 -9 12 2 0 10 3 11 11 3 14 -14 41 -5 33 11 -3 6 1 3
8 -6 9 -11 19 -14 28 -8 9 5 19 5 27 -2 9 -7 13 -7 13 2 0 9 4 9 17 -1 11 -10
14 -10 9 -1 -4 6 -3 12 3 12 5 0 13 -5 17 -11 5 -8 9 -8 14 1 6 9 12 9 30 0
15 -8 20 -8 16 -1 -5 7 2 11 16 11 18 0 20 -2 8 -10 -9 -6 -10 -10 -3 -10 6 0
15 5 18 10 5 8 11 8 20 0 9 -8 14 -6 19 6 5 13 9 14 21 4 9 -7 18 -10 22 -7 3
4 12 2 20 -4 8 -7 13 -8 13 -1 0 5 7 13 16 16 8 3 13 2 9 -3 -3 -5 1 -16 9
-24 8 -8 13 -16 11 -19 -6 -5 -7 -64 -2 -115 2 -24 1 -43 -2 -43 -3 0 -6 -11
-6 -24 0 -13 2 -23 5 -21 3 2 5 -25 5 -60 0 -35 -3 -61 -7 -58 -5 2 -13 -7
-19 -21 -7 -14 -16 -23 -21 -20 -4 3 -11 -2 -14 -10 -3 -9 -13 -16 -20 -16 -8
0 -17 -7 -20 -15 -4 -8 -10 -12 -15 -9 -5 3 -9 0 -9 -5 0 -6 -9 -11 -20 -11
-10 0 -24 -8 -29 -17 -6 -10 -11 -14 -11 -10 0 5 -13 -1 -30 -13 -16 -12 -30
-16 -30 -10 0 6 -10 2 -22 -10 -16 -15 -24 -17 -30 -8 -6 10 -8 10 -8 -1 0 -7
-6 -11 -15 -7 -10 3 -15 -1 -15 -12 0 -15 -2 -15 -10 -2 -6 9 -10 11 -10 3 0
-7 -7 -10 -15 -7 -9 4 -15 0 -15 -7 0 -11 -3 -11 -10 1 -5 8 -10 10 -10 3 0
-12 -17 -12 -37 0 -9 5 -11 3 -7 -6 4 -12 -3 -15 -35 -13 -23 1 -41 0 -41 -3
0 -3 -18 -6 -40 -6 -22 0 -40 4 -40 8 0 4 -8 4 -17 -2 -12 -6 -21 -5 -31 7 -7
10 -11 11 -7 5 3 -7 1 -13 -4 -13 -6 0 -11 6 -11 13 0 8 -4 7 -10 -3 -8 -12
-10 -12 -10 -1 0 10 -3 11 -14 2 -9 -7 -15 -8 -18 -2 -1 5 -16 12 -33 15 -16
2 -32 5 -35 6 -3 1 -9 2 -14 1 -4 -1 -14 4 -22 10 -8 6 -14 8 -14 5 0 -4 -7 0
-16 9 -9 9 -23 14 -30 11 -8 -3 -14 -1 -14 4 0 6 -7 10 -15 10 -8 0 -15 5 -15
11 0 5 -4 8 -9 5 -5 -3 -14 1 -21 9 -7 8 -17 15 -22 15 -5 0 -16 7 -25 15 -8
8 -20 12 -26 8 -7 -3 -9 -3 -5 2 7 7 -14 35 -28 35 -4 0 -19 13 -35 29 -15 16
-30 26 -34 23 -3 -4 -3 1 1 11 4 12 1 17 -12 17 -9 0 -15 3 -11 6 3 3 -5 16
-19 29 -13 12 -24 27 -24 34 0 6 -4 11 -10 11 -5 0 -10 6 -10 14 0 8 -7 17
-16 20 -10 4 -14 14 -11 26 3 11 2 18 -3 15 -9 -5 -23 21 -25 45 0 8 -6 14
-13 12 -7 -1 -12 9 -12 22 0 14 -5 28 -10 31 -6 4 -8 10 -5 15 3 4 -1 10 -9
13 -8 3 -13 14 -11 24 1 10 -4 29 -12 42 -9 13 -10 20 -3 16 8 -5 7 2 -2 21
-8 16 -13 37 -11 47 3 9 0 17 -5 17 -5 0 -10 15 -11 33 -2 38 -8 80 -11 87 -6
13 -4 36 4 48 5 7 4 12 -3 12 -6 0 -11 5 -11 11 0 5 6 7 13 3 8 -5 8 -2 -2 9
-11 14 -11 17 0 17 12 0 12 2 0 9 -9 6 -10 10 -2 16 9 5 9 10 1 20 -8 10 -8
15 0 20 8 5 8 10 0 20 -8 10 -8 15 0 20 8 5 8 11 -1 21 -6 8 -7 14 -3 14 5 0
10 23 12 51 1 29 7 58 12 64 8 9 7 15 -2 18 -10 4 -10 6 0 6 7 1 12 14 12 31
0 17 4 30 10 30 5 0 8 14 6 31 -2 19 1 32 10 36 8 3 14 14 14 24 0 11 4 27 9
37 5 9 12 25 15 35 4 11 11 15 17 11 8 -4 9 -3 5 5 -4 6 -2 19 6 28 11 14 11
16 -2 8 -10 -5 -9 -2 3 11 10 10 32 42 50 69 17 28 46 64 63 82 18 17 31 33
29 35 -1 2 7 12 18 23 11 11 17 13 12 5 -4 -8 7 1 24 20 17 19 31 31 31 25 1
-5 7 1 15 15 8 14 14 19 15 10 0 -10 5 -7 16 8 8 12 19 20 24 17 4 -3 10 2 14
10 3 9 12 12 22 8 11 -4 15 -2 11 4 -4 6 11 15 38 22 25 6 45 16 45 23 0 6 3
8 7 5 3 -4 13 -1 21 6 13 10 15 9 8 -3 -7 -13 -6 -13 6 0 7 8 29 16 48 17 51
2 52 2 44 15 -4 7 -3 8 5 4 6 -4 18 -2 26 4 18 15 20 -1 3 -20 -9 -10 -7 -10
7 1 11 8 27 15 35 14 8 0 18 4 22 10 5 6 8 5 8 -3 0 -8 6 -10 18 -5 9 5 26 7
37 7 11 -1 26 -2 33 -3 8 -1 10 -6 6 -13 -6 -10 -4 -10 7 0 14 13 33 17 25 4
-3 -4 8 -7 25 -6 16 1 29 -1 29 -5 0 -4 11 -8 26 -9 14 -1 33 -6 43 -12 10 -5
21 -6 25 -3 3 3 6 1 6 -5 0 -6 9 -9 20 -7 11 2 18 0 15 -6 -4 -5 3 -9 15 -9
11 0 23 -7 27 -16 3 -8 12 -13 19 -10 8 3 14 1 14 -4 0 -6 5 -10 11 -10 7 0
20 -9 30 -21 10 -11 22 -18 28 -15 5 4 13 1 17 -5 5 -8 3 -9 -6 -4 -9 5 -11 4
-6 -3 4 -7 14 -12 22 -12 8 0 12 -4 9 -10 -3 -5 -1 -10 5 -10 15 0 60 -46 53
-54 -4 -3 2 -6 12 -6 10 0 15 -3 12 -6 -3 -4 6 -18 21 -33 15 -14 28 -33 30
-41 2 -8 8 -19 14 -25 8 -7 8 -5 3 5 -8 13 -6 13 8 2 9 -8 22 -10 28 -6 8 5
10 3 4 -7 -4 -8 1 -5 12 6 11 11 19 23 16 27 -2 4 6 5 17 3 11 -2 18 0 15 5
-5 9 33 26 48 22 5 -1 6 2 2 8 -3 5 1 10 9 10 9 0 16 5 16 11 0 6 7 8 16 5 10
-4 13 -2 8 6 -5 8 -2 9 9 5 10 -4 16 -2 14 5 -1 7 5 13 13 13 8 0 14 6 13 13
-2 6 4 9 12 6 8 -4 15 -1 15 6 0 6 4 9 9 6 5 -3 14 1 21 9 7 8 16 13 20 10 4
-3 11 2 14 11 3 8 10 12 16 9 5 -3 10 1 10 9 0 10 7 13 21 11 15 -3 19 0 15
11 -3 9 -2 12 5 8 6 -3 22 5 36 17 15 13 23 18 18 10 -5 -9 -4 -12 3 -7 14 9
16 36 3 36 -5 0 -13 9 -16 20 -4 11 -11 18 -16 15 -5 -3 -6 1 -3 9 3 9 2 16
-3 16 -4 0 -19 18 -33 40 -14 22 -28 40 -32 40 -5 0 -8 6 -8 14 0 8 -11 23
-23 33 -13 10 -29 28 -36 41 -6 12 -18 22 -26 22 -8 0 -14 5 -12 12 1 6 -8 17
-20 23 -13 7 -20 15 -16 19 4 4 -3 9 -15 13 -12 3 -20 9 -17 13 2 4 -7 12 -20
18 -14 7 -25 16 -25 22 0 5 -6 9 -12 7 -7 -1 -12 4 -10 11 1 8 -2 11 -7 8 -5
-3 -14 1 -21 9 -7 8 -19 15 -27 15 -8 0 -11 5 -7 12 5 7 2 9 -9 5 -9 -3 -18 0
-21 9 -3 8 -12 14 -21 14 -8 0 -15 6 -15 13 0 9 -3 8 -9 -2 -7 -11 -10 -9 -16
8 -3 12 -11 19 -16 15 -6 -3 -19 2 -29 11 -11 10 -31 18 -44 18 -14 0 -23 3
-20 8 3 5 -1 10 -8 11 -24 2 -33 5 -62 17 -16 6 -31 9 -34 6 -3 -2 -11 0 -18
6 -8 6 -21 9 -29 5 -9 -3 -15 0 -15 9 0 16 -21 16 -32 0 -5 -6 -8 -6 -8 2 0 7
-14 11 -38 10 -25 -2 -39 2 -39 10 0 7 5 9 10 6 6 -3 7 -2 4 4 -9 14 -348 14
-366 -1 -8 -6 -12 -6 -9 -1 4 6 -2 11 -13 11 -11 0 -23 -4 -25 -8z m13 -13 c0
-8 -4 -12 -9 -9 -5 3 -6 10 -3 15 9 13 12 11 12 -6z"/>
<path d="M2834 3873 c-4 -14 -11 -20 -18 -16 -6 4 -5 -1 3 -11 13 -15 13 -19
0 -27 -8 -5 -9 -9 -4 -9 14 0 14 -223 1 -232 -8 -5 -7 -8 1 -8 6 0 10 -8 8
-17 -1 -10 2 -26 7 -37 8 -14 7 -17 -2 -11 -10 6 -11 1 -6 -19 4 -18 2 -26 -6
-26 -10 0 -10 -2 -1 -8 14 -9 12 -64 -2 -74 -6 -5 -6 -8 1 -8 7 0 15 -7 18
-16 4 -10 2 -13 -6 -8 -7 5 -9 -1 -4 -20 4 -18 2 -26 -6 -26 -9 0 -10 -3 -2
-8 14 -9 14 -72 0 -72 -7 0 -8 -3 -1 -8 14 -10 15 -112 1 -112 -7 0 -8 -3 -1
-8 14 -10 15 -225 1 -234 -7 -5 -7 -8 -1 -8 14 0 14 -230 0 -230 -7 0 -7 -3 0
-8 14 -10 15 -145 1 -154 -7 -5 -7 -8 -1 -8 14 0 14 -230 0 -230 -7 0 -7 -3 0
-8 14 -10 15 -225 1 -234 -8 -5 -7 -8 1 -8 6 0 10 -8 8 -17 -1 -10 2 -26 7
-37 8 -14 7 -17 -2 -11 -10 6 -11 1 -6 -19 4 -18 2 -26 -6 -26 -10 0 -10 -2
-1 -8 14 -9 12 -64 -2 -74 -6 -5 -6 -8 1 -8 7 0 15 -7 18 -16 4 -10 2 -13 -6
-8 -7 5 -9 -1 -4 -20 4 -18 2 -26 -6 -26 -9 0 -10 -3 -2 -8 14 -9 14 -72 0
-72 -7 0 -8 -3 -1 -8 14 -10 15 -112 1 -112 -7 0 -8 -3 -1 -8 14 -10 15 -225
1 -234 -7 -5 -7 -8 -1 -8 11 0 15 -224 4 -235 -9 -8 20 -65 32 -65 6 0 7 5 3
11 -5 8 -1 8 13 0 14 -7 23 -7 31 1 9 9 12 9 12 -1 0 -11 3 -11 17 0 11 10 14
10 9 2 -4 -7 -2 -13 3 -13 6 0 11 5 11 11 0 8 6 7 17 -2 15 -12 16 -12 8 1 -6
12 -5 13 6 3 15 -15 33 -18 25 -5 -3 5 1 9 9 9 8 0 15 -5 15 -10 0 -5 8 -3 17
4 11 10 14 10 9 2 -4 -7 -2 -13 3 -13 6 0 11 5 11 11 0 6 5 7 13 2 18 -11 49
-15 43 -5 -3 5 1 9 9 9 8 0 15 -3 15 -7 0 -3 9 -6 20 -7 11 -1 18 2 16 6 -3 4
1 8 9 8 8 0 15 -4 15 -9 0 -4 5 -8 11 -8 5 0 7 6 3 13 -5 8 -2 8 9 -2 14 -11
17 -11 17 0 0 11 2 11 10 -1 9 -13 10 -13 10 0 0 13 1 13 10 0 8 -12 10 -12
10 -1 0 10 3 11 14 2 11 -9 15 -9 19 1 4 10 6 10 6 1 1 -7 6 -13 12 -13 5 0 8
3 6 8 -3 4 8 7 23 7 16 1 26 -3 24 -7 -3 -4 0 -8 5 -8 6 0 11 5 11 11 0 8 4 8
14 0 11 -9 15 -9 19 1 4 10 6 10 6 1 1 -7 6 -13 12 -13 5 0 7 5 3 11 -4 8 0 8
15 0 16 -9 21 -9 21 1 0 10 3 9 9 -1 8 -12 12 -12 25 -2 13 11 16 11 16 0 0
-11 2 -11 10 1 6 10 10 11 10 3 0 -7 5 -13 11 -13 5 0 7 5 3 11 -4 7 1 7 16
-1 12 -7 20 -7 16 -2 -3 6 0 13 6 15 10 4 9 8 -2 16 -13 10 -13 11 0 11 9 0
11 3 5 8 -12 8 -13 27 -3 37 4 4 3 15 -2 25 -5 10 -6 20 -3 24 11 11 12 36 2
36 -6 0 -6 8 1 19 7 13 7 22 0 26 -7 4 -7 13 0 26 8 13 7 19 0 19 -6 0 -8 5
-5 11 10 15 13 59 5 59 -4 0 -7 7 -7 15 0 8 3 15 6 15 3 0 6 14 6 30 0 17 -4
30 -8 30 -4 0 -3 8 2 18 7 13 6 23 -1 30 -9 9 -8 12 2 12 13 0 13 2 0 10 -8 5
-10 10 -4 10 6 0 11 7 11 15 0 8 -4 15 -8 15 -8 0 -6 26 4 36 3 4 2 14 -3 24
-5 10 -6 20 -3 24 10 10 11 46 1 46 -5 0 -6 5 -3 11 10 15 13 59 5 59 -4 0 -7
7 -7 15 0 8 3 15 6 15 3 0 6 14 6 30 0 17 -4 30 -8 30 -4 0 -3 10 4 21 9 17 8
23 -2 30 -11 7 -11 9 1 9 9 0 11 3 5 8 -13 9 -18 32 -7 32 12 0 9 43 -3 52 -6
5 -6 8 1 8 6 0 11 7 11 15 0 8 -4 15 -8 15 -8 0 -7 20 3 35 4 6 3 17 -2 25 -5
8 -5 21 0 31 5 9 6 20 2 24 -4 4 14 6 41 4 26 -3 47 -1 47 3 0 4 14 3 30 -2
17 -5 30 -5 30 0 0 5 13 5 30 0 17 -5 30 -5 30 0 0 5 13 5 30 0 17 -5 30 -5
30 0 0 5 13 5 30 0 17 -5 30 -5 30 0 0 5 13 5 30 0 17 -5 30 -5 30 0 0 5 13 5
30 0 17 -5 30 -5 30 0 0 5 13 5 30 0 17 -5 30 -5 30 -1 0 4 20 5 45 1 29 -4
46 -3 49 4 2 6 5 3 5 -6 1 -10 7 -18 14 -18 8 0 8 -3 2 -8 -14 -9 -14 -95 -1
-104 8 -6 8 -8 0 -8 -12 0 -12 -59 0 -79 6 -10 5 -12 -2 -7 -7 4 -12 3 -12 -3
0 -5 5 -13 10 -16 6 -4 7 -12 3 -18 -11 -18 -12 -86 -2 -93 5 -3 6 -11 2 -17
-12 -19 -13 -46 -3 -52 6 -4 7 -12 3 -18 -12 -19 -11 -87 1 -87 7 0 8 -3 1 -8
-14 -10 -15 -75 -1 -84 7 -5 8 -8 0 -8 -14 0 -14 -60 0 -60 7 0 8 -3 1 -8 -14
-10 -15 -75 -1 -84 7 -5 8 -8 0 -8 -6 0 -10 -13 -10 -30 0 -16 4 -30 10 -30 7
0 8 -3 1 -8 -14 -10 -15 -75 -1 -84 7 -5 8 -8 0 -8 -6 0 -10 -13 -10 -30 0
-16 4 -30 8 -30 5 0 6 -6 1 -12 -14 -23 -11 -98 4 -98 8 0 11 -5 7 -12 -5 -8
-2 -9 12 -4 32 13 55 15 49 5 -4 -5 -1 -9 4 -9 6 0 11 5 11 11 0 8 4 8 14 0
11 -9 15 -9 19 1 4 10 6 10 6 1 1 -7 6 -13 12 -13 5 0 8 4 5 8 -6 10 30 9 40
-1 14 -13 23 -7 17 11 -7 16 -6 16 11 -1 20 -20 36 -22 36 -4 0 8 4 7 10 -3 9
-13 10 -13 10 0 0 13 1 13 10 0 9 -13 10 -13 10 0 0 13 1 13 10 0 9 -13 10
-13 10 0 0 13 1 13 10 0 9 -13 10 -13 10 0 0 13 1 13 10 0 9 -13 10 -13 10 0
0 13 1 13 10 0 9 -13 10 -13 10 0 0 13 1 13 10 0 9 -13 10 -13 10 0 0 13 1 13
10 0 9 -13 10 -13 10 0 0 13 1 13 10 0 9 -13 10 -13 10 0 0 13 1 13 10 0 9
-13 10 -13 10 0 0 13 1 13 10 0 9 -13 10 -13 10 0 0 13 1 13 10 0 9 -13 10
-13 10 0 0 13 1 13 10 0 9 -13 10 -13 10 0 0 13 1 13 10 0 9 -13 10 -13 10 0
0 13 1 13 10 0 5 -8 10 -10 10 -5 0 12 75 13 86 2 4 -4 13 -2 21 4 10 9 13 8
13 0 0 -7 5 -9 13 -4 16 10 77 11 71 1 -3 -4 0 -8 5 -8 6 0 11 5 11 11 0 5 5
7 12 3 8 -5 9 -2 5 9 -3 10 -2 17 3 17 5 0 7 7 3 16 -3 9 0 20 8 25 10 6 10 9
2 9 -7 0 -13 9 -13 21 0 12 4 17 11 13 6 -3 4 5 -6 19 -11 17 -13 27 -5 32 8
5 8 11 -1 21 -8 10 -8 14 0 14 6 0 11 5 11 11 0 5 -4 8 -8 5 -4 -2 -6 11 -4
30 2 19 8 31 14 28 6 -4 3 5 -7 19 -11 17 -13 27 -5 32 8 5 8 11 -1 21 -8 10
-8 14 0 14 6 0 11 5 11 11 0 5 -4 8 -8 5 -4 -2 -6 11 -4 30 2 19 8 31 14 28 6
-4 3 5 -7 19 -11 17 -13 27 -5 32 8 5 8 11 -1 21 -8 10 -8 14 0 14 6 0 11 5
11 11 0 5 -4 8 -8 5 -4 -2 -6 11 -4 30 2 19 8 31 14 28 6 -4 3 5 -7 19 -11 17
-13 27 -5 32 8 5 8 11 -1 21 -8 10 -8 14 0 14 6 0 11 5 11 11 0 5 -4 8 -8 5
-4 -2 -6 11 -4 30 2 19 8 31 14 28 6 -4 3 5 -7 19 -11 17 -13 27 -5 32 8 5 8
11 -1 21 -8 10 -8 14 0 14 6 0 11 5 11 11 0 5 -4 8 -8 5 -4 -2 -6 11 -4 30 2
19 8 31 14 28 6 -4 3 5 -7 19 -11 17 -13 27 -5 32 8 5 8 11 -1 21 -8 10 -8 14
0 14 6 0 11 5 11 11 0 5 -4 8 -8 5 -4 -2 -6 11 -4 30 2 19 8 31 14 28 6 -4 3
5 -7 19 -11 17 -13 27 -5 32 8 5 8 11 -1 21 -8 10 -8 14 0 14 6 0 11 5 11 11
0 5 -4 8 -8 5 -4 -2 -6 11 -4 30 2 19 8 31 14 28 6 -4 3 5 -7 19 -11 17 -13
27 -5 32 8 5 8 11 -1 21 -8 10 -8 14 0 14 6 0 11 5 11 11 0 5 -4 8 -8 5 -4 -2
-6 11 -4 30 2 19 8 31 14 28 6 -4 3 5 -7 19 -11 17 -13 27 -5 32 8 5 8 11 -1
21 -8 10 -8 14 0 14 6 0 11 5 11 11 0 5 -4 8 -8 5 -4 -2 -6 11 -4 30 2 19 8
31 14 28 6 -4 3 5 -7 19 -11 17 -13 27 -5 32 8 5 8 11 -1 21 -8 10 -8 14 0 14
6 0 11 5 11 11 0 5 -4 8 -8 5 -4 -2 -6 11 -4 30 2 19 8 31 14 28 6 -4 3 5 -7
19 -11 17 -13 27 -5 32 8 5 8 11 -1 21 -8 10 -8 14 0 14 6 0 11 5 11 11 0 5
-4 8 -8 5 -4 -2 -6 11 -4 30 2 19 8 31 14 28 6 -4 3 5 -7 19 -11 17 -13 27 -5
32 8 5 8 11 -1 21 -8 10 -8 14 0 14 6 0 11 5 11 11 0 5 -4 8 -8 5 -4 -2 -6 11
-4 30 2 19 8 31 14 28 6 -4 3 5 -7 19 -11 17 -13 27 -5 32 8 5 8 11 -1 21 -8
10 -8 14 0 14 6 0 11 5 11 11 0 5 -4 8 -8 5 -4 -2 -6 11 -4 30 2 19 8 31 14
28 6 -4 3 5 -7 19 -11 17 -13 27 -5 32 8 5 8 11 -1 21 -8 10 -8 14 0 14 6 0
11 5 11 11 0 5 -4 8 -8 5 -4 -2 -6 11 -4 30 2 19 8 31 14 28 6 -4 3 5 -7 19
-11 17 -13 27 -5 32 8 5 8 11 -1 21 -8 10 -8 14 0 14 6 0 11 5 11 11 0 5 -4 8
-8 5 -4 -2 -6 11 -4 30 2 19 8 31 14 28 6 -4 3 5 -7 19 -11 17 -13 27 -5 32 8
5 8 11 -1 21 -8 10 -8 14 0 14 6 0 11 5 11 11 0 5 -4 8 -8 5 -4 -2 -6 11 -4
30 2 19 8 31 14 28 6 -4 3 5 -7 19 -11 17 -13 27 -5 32 8 5 8 11 -1 21 -8 10
-8 14 0 14 6 0 11 5 11 11 0 5 -4 8 -8 5 -4 -2 -6 11 -4 30 2 19 8 31 14 28 6
-4 3 5 -7 19 -11 18 -13 27 -5 32 8 5 6 13 -6 26 -9 10 -22 16 -28 12 -18 -11
-66 -10 -66 1 0 7 -3 8 -8 1 -10 -14 -65 -14 -74 -1 -5 7 -11 8 -15 1 -11 -15
-31 -17 -52 -5 -10 5 -21 6 -25 3 -10 -10 -66 -11 -66 -1 0 5 -6 6 -12 1 -19
-12 -62 -11 -70 1 -5 7 -11 8 -15 1 -11 -15 -31 -17 -52 -5 -10 5 -21 6 -25 3
-10 -10 -66 -11 -66 -1 0 5 -6 6 -12 1 -19 -12 -62 -11 -70 1 -5 7 -11 8 -15
1 -12 -15 -31 -17 -53 -5 -12 6 -21 7 -25 0 -3 -5 -12 -7 -20 -3 -8 3 -16 1
-16 -3 -6 -47 -4 -74 5 -74 7 0 7 -3 1 -8 -14 -10 -15 -75 -1 -84 7 -5 8 -8 0
-8 -14 0 -14 -60 0 -60 7 0 8 -3 1 -8 -14 -10 -15 -75 -1 -84 7 -5 7 -8 1 -8
-14 0 -17 -38 -4 -45 5 -4 6 -12 2 -18 -12 -20 -13 -46 -2 -52 7 -5 6 -11 -1
-20 -8 -10 -8 -19 -1 -33 6 -11 7 -23 3 -26 -11 -12 -9 -100 2 -108 8 -6 8 -8
0 -8 -12 0 -12 -59 0 -79 6 -10 5 -12 -2 -7 -7 4 -12 3 -12 -3 0 -5 5 -13 10
-16 6 -4 7 -12 3 -18 -11 -18 -12 -86 -2 -93 5 -3 6 -11 2 -17 -12 -19 -13
-40 -2 -53 6 -7 6 -15 1 -18 -5 -3 -8 -27 -7 -53 3 -59 -2 -74 -22 -66 -12 5
-14 3 -8 -7 6 -10 4 -11 -6 -4 -22 13 -49 15 -49 3 0 -8 -4 -8 -12 -2 -14 11
-87 11 -104 0 -6 -3 -14 -3 -18 0 -11 11 -86 10 -86 -1 0 -8 -3 -8 -8 -1 -9
13 -91 13 -111 1 -9 -6 -12 -5 -8 1 9 14 -45 12 -55 -2 -5 -7 -8 -6 -8 1 0 12
-38 13 -57 1 -8 -5 -13 -3 -13 3 0 7 -7 9 -16 6 -15 -6 -48 17 -38 27 9 8 12
57 4 57 -4 0 -7 7 -7 15 0 8 3 15 6 15 3 0 6 14 6 30 0 17 -4 30 -8 30 -4 0
-3 8 2 18 7 13 6 23 -1 30 -9 9 -8 12 3 12 12 0 12 2 -1 10 -8 5 -10 10 -4 10
6 0 11 7 11 15 0 8 -4 15 -8 15 -8 0 -6 26 4 36 3 4 2 14 -3 24 -5 10 -6 20
-3 24 10 10 11 46 1 46 -5 0 -6 5 -3 11 10 15 13 59 5 59 -4 0 -7 7 -7 15 0 8
3 15 6 15 3 0 6 14 6 30 0 17 -4 30 -8 30 -4 0 -3 10 4 21 9 17 8 23 -2 30
-11 7 -11 9 1 9 9 0 11 3 5 8 -13 9 -18 32 -7 32 12 0 9 43 -3 52 -6 5 -6 8 1
8 6 0 11 7 11 15 0 8 -4 15 -8 15 -8 0 -6 26 4 36 3 4 2 14 -3 24 -5 10 -6 20
-3 24 11 11 12 36 2 36 -6 0 -6 8 1 19 7 13 7 22 0 26 -7 4 -7 13 0 26 8 13 7
19 0 19 -6 0 -8 5 -5 11 4 6 8 28 9 49 1 31 -2 37 -16 35 -10 -2 -20 0 -23 6
-4 5 -15 5 -28 -2 -16 -9 -22 -9 -25 0 -3 9 -8 9 -20 -1 -12 -11 -16 -11 -20
0 -3 10 -7 10 -20 0 -12 -11 -16 -11 -20 0 -3 10 -7 10 -20 0 -12 -11 -16 -11
-20 0 -3 10 -7 10 -20 0 -12 -11 -16 -11 -20 0 -3 10 -7 10 -20 0 -12 -11 -16
-11 -20 0 -3 10 -7 10 -20 0 -12 -11 -16 -11 -20 0 -3 10 -7 10 -20 0 -12 -11
-16 -11 -20 0 -3 10 -7 10 -20 0 -12 -11 -16 -11 -20 0 -3 10 -7 10 -20 0 -12
-11 -16 -11 -20 0 -3 10 -7 10 -20 0 -12 -11 -16 -11 -20 0 -3 10 -7 10 -20 0
-12 -11 -16 -11 -20 0 -3 10 -7 10 -20 0 -12 -11 -16 -11 -20 0 -3 10 -7 10
-20 0 -12 -11 -16 -11 -20 0 -3 10 -7 10 -20 0 -12 -11 -16 -11 -20 0 -3 10
-7 10 -20 0 -12 -11 -16 -11 -20 0 -3 10 -7 10 -20 0 -12 -11 -16 -11 -20 0
-3 10 -7 10 -19 1 -12 -10 -16 -10 -24 2 -7 11 -10 10 -15 -8z"/>
<path d="M1535 900 c3 -5 8 -10 11 -10 2 0 4 5 4 10 0 6 -5 10 -11 10 -5 0 -7
-4 -4 -10z"/>
</g>
</svg>
